<svg width="90" height="69" viewBox="0 0 90 69" fill="none" xmlns="http://www.w3.org/2000/svg">
<g style="mix-blend-mode:multiply">
<path d="M35.0757 17.5734C35.0757 18.3985 35.0757 19.2014 35.0311 20.0042C34.9642 20.8293 34.8972 21.6322 34.7634 22.435C34.6296 23.2602 34.3842 24.0407 34.1834 24.799C33.9827 25.6018 33.7819 26.3823 33.5143 27.1183C33.2243 27.8988 32.8674 28.6348 32.5105 29.3261C32.1313 30.0844 31.8413 30.8649 31.3952 31.4893C30.8821 32.1807 30.2352 32.6936 29.6553 33.2065C29.0084 33.7641 28.4061 34.3216 27.6923 34.6338C26.9339 34.9683 26.1309 35.1021 25.3055 35.1021C24.4802 35.1021 23.7218 34.8345 22.9857 34.5C22.2719 34.1878 21.5135 33.8756 20.8666 33.2957C20.2866 32.7828 19.7959 32.1138 19.3051 31.4224C18.859 30.798 18.4129 30.1067 18.0114 29.3484C17.6545 28.6571 17.3199 27.9211 17.0299 27.1183C16.7622 26.3823 16.4722 25.6018 16.2715 24.799C16.0707 24.0407 15.9592 23.2156 15.8254 22.4127C15.6915 21.6322 15.6023 20.807 15.5354 19.9819C15.4685 19.1791 15.5354 18.3762 15.5354 17.5511C15.5354 17.0381 15.4908 16.4583 15.5354 15.9454C16.7176 15.8785 16.7176 16.1684 17.8775 16.3691C19.0598 16.5698 19.0375 16.5921 20.2197 16.7928C21.0078 16.9266 21.7886 17.053 22.5619 17.1719C23.7441 17.3727 24.3018 18.5546 24.904 17.5288C25.484 16.5475 24.0787 16.7705 23.2534 15.99C22.428 15.1871 22.428 15.1871 21.5804 14.4066C20.7327 13.6038 20.822 13.5368 19.9966 12.734C19.149 11.9312 19.1044 11.9981 18.2567 11.1952C17.4091 10.3924 17.1191 10.6377 16.5168 9.65643C16.7399 8.89819 17.1414 8.16225 17.4091 7.47091C17.6991 6.73497 17.9445 5.99903 18.3014 5.35229C18.6806 4.63865 19.0821 3.96962 19.5282 3.38979C20.0189 2.74305 20.5543 2.18552 21.1119 1.7172C21.7365 1.20427 22.3611 0.71364 23.0303 0.423725C23.7441 0.133809 24.5471 0 25.3055 0C26.1086 0 26.8893 0.245314 27.6477 0.579832C28.3615 0.89205 29.0307 1.31577 29.6776 1.89561C30.2575 2.40853 30.8375 2.98836 31.3282 3.6797C31.7744 4.30414 32.2205 4.99548 32.5997 5.75372C32.9566 6.44505 33.3135 7.181 33.6035 7.98384C33.8711 8.71978 34.1165 9.50032 34.3396 10.3255C34.5403 11.0837 34.6519 11.9089 34.7857 12.7117C34.9195 13.4922 35.0534 14.3174 35.1203 15.1425C35.1872 15.9454 35.0534 16.7705 35.0534 17.5957L35.0757 17.5734ZM63.94 0.066901C63.1593 0.066901 62.4232 0.245313 61.7094 0.535229C61.0179 0.825145 60.3487 1.18197 59.7242 1.69489C59.1665 2.16322 58.6311 2.74305 58.1404 3.38979C57.6943 3.96962 57.382 4.68326 57.0028 5.3969C56.6459 6.04363 56.1998 6.69037 55.9098 7.42631C55.6421 8.11765 55.4413 8.85359 55.2183 9.61183C55.8205 10.5931 56.0659 10.3701 56.8913 11.1729C57.7166 11.9758 57.7612 11.9312 58.6088 12.7117C59.4565 13.5145 59.4119 13.5368 60.2595 14.3174C61.1071 15.1202 61.1071 15.0979 61.9548 15.9008C62.8024 16.7036 64.0516 16.5252 63.4939 17.5288C62.914 18.5769 62.3786 17.4396 61.2187 17.2611C60.0364 17.0604 60.0587 17.0158 58.8765 16.8374C57.6943 16.6367 57.7166 16.5029 56.5567 16.3245C55.3744 16.1238 55.3744 15.9231 54.1922 15.99C54.1699 16.5029 54.1922 17.0604 54.1922 17.5734C54.1922 18.3985 54.3037 19.2014 54.3483 20.0042C54.4153 20.8293 54.3929 21.6545 54.5268 22.435C54.6606 23.2602 54.8168 24.063 55.0175 24.8213C55.2183 25.6241 55.486 26.4047 55.7536 27.1406C56.0436 27.9211 56.3559 28.6794 56.7128 29.3707C57.092 30.129 57.5604 30.798 58.0066 31.4224C58.5196 32.1138 58.988 32.7828 59.568 33.2957C60.2149 33.8533 60.951 34.1878 61.6648 34.5C62.4232 34.8345 63.1593 34.9906 63.9847 34.9906C64.81 34.9906 65.5907 34.9237 66.3491 34.5892C67.0629 34.277 67.6875 33.7641 68.3121 33.2065C68.892 32.6936 69.4051 32.0915 69.9181 31.4001C70.3643 30.7757 70.855 30.129 71.2565 29.3707C71.6134 28.6794 71.9257 27.9211 72.2157 27.1406C72.4834 26.4047 72.7287 25.6241 72.9295 24.8213C73.1302 24.063 73.2864 23.2602 73.4202 22.435C73.5541 21.6545 73.7771 20.8517 73.844 20.0265C73.911 19.2237 73.7102 18.3985 73.7102 17.5734C73.7102 16.7482 73.7102 15.9454 73.6433 15.1425C73.5764 14.3174 73.5318 13.5145 73.4202 12.7117C73.2864 11.8866 73.2418 11.0614 73.041 10.3032C72.8403 9.50033 72.5726 8.71978 72.3049 7.98384C72.0149 7.2033 71.6134 6.46735 71.2788 5.77601C70.8996 5.01777 70.4312 4.34874 69.985 3.72431C69.472 3.03297 68.959 2.43083 68.379 1.9179C67.7321 1.36037 67.1298 0.802843 66.416 0.490626C65.6576 0.156107 64.8323 0.066901 64.0293 0.066901H63.94ZM88.2985 56.0876C88.0978 55.9538 87.8747 55.8423 87.6739 55.7754C87.6516 55.7754 87.6739 55.7085 87.6516 55.6862C86.5586 55.2847 85.4656 54.8164 84.5065 54.1028C83.5027 53.456 82.6104 52.6755 81.8297 51.8058C81.0936 50.8914 80.5805 49.7986 80.1121 48.7059C79.666 47.68 79.2868 46.3866 79.2868 45.4945C79.2868 44.1787 78.283 43.1752 76.9669 43.1752C75.6508 43.1752 74.714 44.1564 74.6917 45.4722C74.6917 45.6952 74.6917 45.8959 74.7363 46.0966C74.7363 46.1189 74.7586 46.0966 74.7809 46.1412C75.004 46.9664 75.0932 47.7246 75.3832 48.3937C75.6955 49.1073 76.1639 49.7317 76.5208 50.4231C76.5877 50.5569 76.6323 50.713 76.6992 50.8468C76.1862 51.4935 75.4947 52.0288 74.8701 52.6755C74.2902 53.2776 73.6879 53.8798 73.041 54.4596C72.4164 55.0171 71.7919 55.6193 71.1004 56.1545C70.4312 56.6674 69.762 57.2249 69.0259 57.7156C68.3121 58.1839 67.5314 58.5407 66.7729 58.9867C66.0368 59.4105 65.2784 59.8342 64.52 60.2356C63.7616 60.637 63.0032 61.0162 62.2001 61.3953C61.4194 61.7521 60.6164 62.0866 59.8134 62.3988C59.0103 62.7111 58.2073 63.0456 57.4043 63.3132C56.579 63.5808 55.7313 63.7369 54.906 63.9822C54.0807 64.2052 53.2553 64.5398 52.43 64.7182C51.5824 64.8966 50.7347 65.0527 49.8871 65.1642C49.0394 65.2757 48.1695 65.2534 47.2995 65.3203C46.4296 65.3872 45.582 65.4987 44.712 65.4987C43.8421 65.4987 42.9944 65.4764 42.1245 65.4095C41.2768 65.3426 40.4069 65.1642 39.5593 65.0527C38.7116 64.9412 37.864 64.8074 37.0163 64.629C36.1687 64.4506 35.3434 64.2498 34.4957 64.0268C33.6704 63.8038 32.8451 63.5585 32.0197 63.2909C31.1944 63.0233 30.436 62.5996 29.633 62.3096C28.8299 61.9974 27.9377 61.8636 27.157 61.5068C26.3762 61.15 25.5955 60.7485 24.8371 60.3471C24.0564 59.9457 23.3426 59.4774 22.6065 59.0537C21.8481 58.6076 21.1789 58.0501 20.4874 57.5818C19.7513 57.0911 19.0375 56.6228 18.3683 56.1099C17.6768 55.5747 16.9407 55.084 16.3161 54.5488C15.6469 53.969 14.9777 53.4114 14.3977 52.8093C13.7732 52.1849 13.1932 51.5158 12.6802 50.8691C12.7471 50.7353 12.9478 50.6461 13.0148 50.5123C13.3717 49.7986 13.7063 49.1296 13.9962 48.3937C14.2639 47.7246 14.487 47.011 14.71 46.1858C14.71 46.1635 14.71 46.1635 14.71 46.1189C14.777 45.9182 14.8885 45.6952 14.8885 45.4722C14.8885 44.1564 13.7286 43.0637 12.4125 43.0637C11.0964 43.0637 9.9588 44.201 9.98111 45.4945C9.98111 46.3866 9.84727 47.7246 9.37884 48.7505C8.9104 49.8432 8.15199 50.7799 7.41588 51.6942C6.63516 52.564 5.89905 53.5229 4.91758 54.1697C3.98071 54.861 2.84309 55.307 1.75008 55.7085C1.72778 55.7085 1.68316 55.6416 1.66086 55.6416C1.43779 55.7308 1.30395 55.9761 1.1032 56.1099C0.523234 56.5336 0.121722 57.0688 0.0324968 57.7379C-0.0790347 58.3846 0.0994184 59.076 0.523238 59.6335C0.947058 60.2133 1.54933 60.5255 2.19621 60.637C2.84309 60.7485 3.46767 60.5701 4.04763 60.1464C4.73913 59.6335 5.45293 59.1652 6.09981 58.6076C6.769 58.0501 7.41588 57.4703 8.04046 56.8904C8.68734 57.3811 9.31192 57.9609 9.98111 58.4292C10.6503 58.8975 11.3864 59.2321 12.1002 59.6781C12.7917 60.1018 13.4832 60.5478 14.197 60.9493C14.9108 61.3507 15.6023 61.7521 16.3384 62.1312C17.0745 62.488 17.8106 62.8449 18.5467 63.1794C19.2828 63.5139 20.0636 63.7815 20.822 64.0937C21.5804 64.4059 22.3388 64.6959 23.1195 64.9635C23.8779 65.2311 24.6586 65.4987 25.4394 65.7663C26.2201 66.0116 26.9785 66.3685 27.7592 66.5915C28.5399 66.8145 29.3653 66.9483 30.146 67.1267C30.949 67.3274 31.7521 67.4166 32.5551 67.595C33.3581 67.7734 34.1388 68.0856 34.9419 68.2418C35.7449 68.3756 36.5702 68.4202 37.3732 68.5317C38.1986 68.6432 39.0016 68.7101 39.8269 68.777C40.6523 68.8662 41.4553 68.9331 42.2583 68.9777C43.0837 69.0223 43.909 68.9777 44.712 69C45.515 69 46.3404 69 47.1657 68.9554C47.9687 68.9108 48.7941 68.9108 49.6194 68.8216C50.4224 68.7324 51.2255 68.6209 52.0508 68.5094C52.8538 68.3979 53.6568 68.2195 54.4599 68.0633C55.2629 67.9295 56.0659 67.7511 56.8689 67.595C57.672 67.4166 58.4527 67.2159 59.2557 67.0152C60.0587 66.8145 60.8395 66.6138 61.6202 66.3908C62.4009 66.1677 63.2039 65.967 63.9847 65.7217C64.7654 65.4764 65.5238 65.1642 66.2822 64.8966C67.0629 64.629 67.8213 64.339 68.5798 64.0491C69.3382 63.7369 70.1189 63.4916 70.8773 63.1571C71.6357 62.8226 72.3941 62.5103 73.1079 62.1535C73.844 61.7967 74.5132 61.2838 75.227 60.9047C75.9408 60.5032 76.7215 60.191 77.413 59.7673C78.1045 59.3436 78.8406 58.9421 79.5098 58.4738C80.179 58.0055 80.7813 57.3365 81.4282 56.8458C82.0528 57.448 82.7219 58.0278 83.3911 58.5853C84.038 59.1429 84.7295 59.6558 85.421 60.1464C86.001 60.5701 86.6479 60.86 87.2947 60.7708C87.9416 60.6816 88.5216 60.2133 88.9454 59.6335C89.3692 59.0537 89.4361 58.4069 89.3246 57.7379C89.2131 57.0911 88.9677 56.4667 88.3877 56.043L88.2985 56.0876Z" fill="#2F47BF"/>
</g>
</svg>
