<svg width="265" height="291" viewBox="0 0 265 291" fill="none" xmlns="http://www.w3.org/2000/svg">
<g clip-path="url(#clip0_114_41765)">
<path d="M257.47 82.58C257.47 81.32 257.48 80.06 257.52 78.79C257.88 66.53 260.28 54.32 259.64 42.1C258.62 22.5 248.07 10.47 232.04 4.01C215.02 -2.84 195.96 0.0300031 178.41 5.54C171.12 7.83 163.81 10.63 157.69 15.63C148.73 22.95 143.21 34.2 136.28 43.87C117.61 69.95 84.1901 65.95 58.7401 77.86C44.0301 84.75 31.5201 96.56 20.7801 109.72C13.9301 118.11 7.60009 127.28 4.00009 137.85C0.550086 147.97 -0.259914 158.95 0.0700861 169.72C0.660086 188.95 4.93009 208.24 14.0901 224.45C27.6101 248.37 48.5601 253.98 69.0401 266.98C90.8601 280.83 115.88 288.23 141.02 289.79C168.88 291.52 198.21 286.17 221.03 267.96C230.59 260.33 244.43 247.14 248.13 234.77C256.57 206.58 265.11 177.64 264.17 148.07C263.47 126.07 257.51 104.55 257.45 82.58H257.47Z" fill="#4417F3"/>
</g>
<defs>
<clipPath id="clip0_114_41765">
<rect width="264.26" height="290.1" fill="white"/>
</clipPath>
</defs>
</svg>
