<svg width="417" height="371" viewBox="0 0 417 371" fill="none" xmlns="http://www.w3.org/2000/svg">
<g style="mix-blend-mode:multiply">
<path d="M185.436 3.31988C184.416 73.8443 186.527 144.416 191.887 214.727C266.711 216.932 342.105 217.098 417 215.178C416.81 158.194 396.865 101.139 357.781 59.9244C314.309 14.0859 246.861 -9.08236 185.436 3.31988Z" fill="#FFD446"/>
</g>
<g style="mix-blend-mode:multiply">
<path d="M269.984 196.894C253.383 152.763 213.54 120.086 169.143 108.134C158.068 105.146 146.589 103.368 135.182 104.008C87.5599 101.02 29.1709 137.207 10.8146 177.592C-11.1939 226.015 1.82622 286.911 36.5229 326.679C53.219 345.816 74.8006 360.851 98.991 367.182C130.059 375.34 167.957 369.577 197.935 357.91C216.006 350.867 228.86 341.026 243.137 327.604C277.028 295.709 286.585 241.026 269.984 196.918V196.894ZM171.515 265.569C167.056 269.766 163.048 272.849 157.404 275.031C148.036 278.683 136.202 280.461 126.502 277.924C118.96 275.932 112.201 271.237 107.007 265.261C96.1688 252.859 92.1134 233.84 98.991 218.711C104.73 206.095 122.944 194.808 137.838 195.732C141.395 195.543 144.977 196.088 148.439 197.013C162.313 200.736 174.74 210.957 179.934 224.734C185.104 238.512 182.14 255.586 171.539 265.545L171.515 265.569Z" fill="#216AFF"/>
</g>
</svg>
