<svg width="212" height="164" viewBox="0 0 212 164" fill="none" xmlns="http://www.w3.org/2000/svg">
<g style="mix-blend-mode:multiply">
<path d="M83.2029 41.6857C83.2029 43.643 83.2029 45.5475 83.0971 47.4519C82.9383 49.4092 82.7796 51.3136 82.4621 53.2181C82.1447 55.1754 81.5626 57.0269 81.0864 58.8255C80.6102 60.73 80.134 62.5815 79.499 64.3272C78.8112 66.1787 77.9646 67.9244 77.118 69.5644C76.2185 71.363 75.5306 73.2145 74.4723 74.6957C73.2553 76.3357 71.7209 77.5524 70.3451 78.7691C68.8107 80.0916 67.382 81.4141 65.6888 82.1547C63.8898 82.9482 61.9849 83.2656 60.0272 83.2656C58.0694 83.2656 56.2704 82.6308 54.5242 81.8373C52.831 81.0967 51.032 80.3561 49.4975 78.9807C48.1218 77.764 46.9577 76.1769 45.7936 74.537C44.7354 73.0558 43.6771 71.4159 42.7247 69.6173C41.8781 67.9773 41.0844 66.2316 40.3965 64.3272C39.7616 62.5815 39.0737 60.73 38.5975 58.8255C38.1213 57.0269 37.8568 55.0696 37.5393 53.1652C37.2218 51.3136 37.0101 49.3563 36.8514 47.399C36.6927 45.4946 36.8514 43.5901 36.8514 41.6328C36.8514 40.4161 36.7456 39.0407 36.8514 37.824C39.6558 37.6653 39.6558 38.353 42.4072 38.8291C45.2116 39.3052 45.1587 39.3581 47.9631 39.8342C49.8326 40.1516 51.6846 40.4514 53.5189 40.7335C56.3233 41.2096 57.6461 44.0133 59.0747 41.5799C60.4505 39.2523 57.117 39.7813 55.1592 37.9298C53.2014 36.0254 53.2014 36.0254 51.1907 34.1738C49.1801 32.2694 49.3917 32.1107 47.4339 30.2063C45.4233 28.3019 45.3174 28.4605 43.3068 26.5561C41.2961 24.6517 40.6082 25.2336 39.1796 22.906C39.7087 21.1074 40.6611 19.3616 41.2961 17.7217C41.9839 15.976 42.566 14.2303 43.4126 12.6962C44.3121 11.0033 45.2645 9.41632 46.3228 8.0409C47.4869 6.50678 48.7568 5.18427 50.0796 4.07335C51.5611 2.85664 53.0427 1.69282 54.6301 1.00512C56.3233 0.317407 58.2281 0 60.0272 0C61.932 0 63.784 0.581908 65.583 1.37542C67.2762 2.11603 68.8636 3.12114 70.3981 4.49656C71.7738 5.71327 73.1495 7.08869 74.3136 8.72861C75.3718 10.2098 76.4301 11.8497 77.3296 13.6484C78.1762 15.2883 79.0228 17.034 79.7107 18.9384C80.3456 20.6842 80.9277 22.5357 81.4568 24.493C81.933 26.2916 82.1976 28.2489 82.5151 30.1534C82.8325 32.0049 83.15 33.9622 83.3087 35.9195C83.4675 37.824 83.15 39.7813 83.15 41.7386L83.2029 41.6857ZM151.672 0.158696C149.82 0.158696 148.074 0.581906 146.381 1.26961C144.74 1.95732 143.153 2.80374 141.671 4.02045C140.349 5.13137 139.079 6.50678 137.915 8.0409C136.856 9.41632 136.116 11.1091 135.216 12.802C134.369 14.3361 133.311 15.8702 132.623 17.6159C131.988 19.2558 131.512 21.0016 130.983 22.8002C132.412 25.1278 132.994 24.5988 134.952 26.5032C136.909 28.4077 137.015 28.3018 139.026 30.1534C141.036 32.0578 140.931 32.1107 142.941 33.9622C144.952 35.8667 144.952 35.8137 146.963 37.7182C148.973 39.6226 151.937 39.1994 150.614 41.5799C149.238 44.0662 147.968 41.3683 145.217 40.9451C142.412 40.469 142.465 40.3632 139.661 39.94C136.856 39.4639 136.909 39.1465 134.158 38.7233C131.353 38.2472 131.353 37.7711 128.549 37.9298C128.496 39.1465 128.549 40.469 128.549 41.6857C128.549 43.643 128.814 45.5475 128.919 47.4519C129.078 49.4092 129.025 51.3665 129.343 53.2181C129.66 55.1754 130.031 57.0798 130.507 58.8784C130.983 60.7829 131.618 62.6344 132.253 64.3801C132.941 66.2316 133.682 68.0303 134.528 69.6702C135.428 71.4688 136.539 73.0558 137.597 74.537C138.814 76.1769 139.925 77.764 141.301 78.9807C142.836 80.3032 144.582 81.0967 146.275 81.8373C148.074 82.6308 149.82 83.0011 151.778 83.0011C153.736 83.0011 155.587 82.8424 157.387 82.0489C159.08 81.3083 160.561 80.0916 162.043 78.7691C163.419 77.5524 164.636 76.1241 165.853 74.4841C166.911 73.0029 168.075 71.4688 169.027 69.6702C169.874 68.0303 170.615 66.2316 171.303 64.3801C171.938 62.6344 172.52 60.7829 172.996 58.8784C173.472 57.0798 173.842 55.1754 174.16 53.2181C174.477 51.3665 175.006 49.4621 175.165 47.5048C175.324 45.6004 174.848 43.643 174.848 41.6857C174.848 39.7284 174.848 37.824 174.689 35.9195C174.53 33.9622 174.424 32.0578 174.16 30.1534C173.842 28.196 173.737 26.2387 173.26 24.4401C172.784 22.5357 172.149 20.6842 171.514 18.9384C170.826 17.0869 169.874 15.3412 169.08 13.7013C168.181 11.9026 167.07 10.3156 166.011 8.83441C164.794 7.19449 163.577 5.76617 162.202 4.54945C160.667 3.22693 159.238 1.90442 157.545 1.16381C155.746 0.370301 153.788 0.158696 151.884 0.158696H151.672ZM209.453 133.045C208.976 132.728 208.447 132.463 207.971 132.305C207.918 132.305 207.971 132.146 207.918 132.093C205.325 131.141 202.733 130.03 200.457 128.337C198.076 126.803 195.96 124.951 194.108 122.888C192.362 120.719 191.145 118.127 190.034 115.535C188.975 113.102 188.076 110.033 188.076 107.917C188.076 104.796 185.695 102.416 182.573 102.416C179.451 102.416 177.229 104.743 177.176 107.864C177.176 108.393 177.176 108.87 177.282 109.346C177.282 109.399 177.335 109.346 177.388 109.451C177.917 111.409 178.128 113.207 178.816 114.794C179.557 116.487 180.668 117.968 181.515 119.608C181.673 119.926 181.779 120.296 181.938 120.614C180.721 122.148 179.081 123.417 177.599 124.951C176.223 126.38 174.795 127.808 173.26 129.183C171.779 130.506 170.297 131.934 168.657 133.204C167.07 134.421 165.482 135.743 163.736 136.907C162.043 138.018 160.191 138.864 158.392 139.922C156.646 140.927 154.847 141.932 153.048 142.885C151.249 143.837 149.45 144.736 147.545 145.636C145.693 146.482 143.788 147.275 141.883 148.016C139.978 148.757 138.073 149.55 136.169 150.185C134.211 150.82 132.2 151.19 130.242 151.772C128.285 152.301 126.327 153.095 124.369 153.518C122.358 153.941 120.348 154.311 118.337 154.576C116.326 154.84 114.263 154.787 112.199 154.946C110.135 155.105 108.125 155.369 106.061 155.369C103.998 155.369 101.987 155.316 99.9233 155.158C97.9126 154.999 95.8491 154.576 93.8384 154.311C91.8277 154.047 89.817 153.729 87.8063 153.306C85.7957 152.883 83.8379 152.407 81.8272 151.878C79.8694 151.349 77.9116 150.767 75.9539 150.132C73.9961 149.497 72.1971 148.492 70.2922 147.804C68.3874 147.064 66.2709 146.746 64.4189 145.9C62.567 145.054 60.715 144.101 58.916 143.149C57.064 142.197 55.3708 141.086 53.6247 140.081C51.8257 139.023 50.2383 137.7 48.598 136.589C46.8519 135.426 45.1587 134.315 43.5713 133.098C41.931 131.828 40.1849 130.665 38.7033 129.395C37.116 128.02 35.5286 126.697 34.1528 125.269C32.6713 123.788 31.2956 122.201 30.0786 120.666C30.2373 120.349 30.7135 120.137 30.8723 119.82C31.7189 118.127 32.5126 116.54 33.2004 114.794C33.8354 113.207 34.3645 111.515 34.8936 109.557C34.8936 109.504 34.8936 109.504 34.8936 109.399C35.0524 108.922 35.3169 108.393 35.3169 107.864C35.3169 104.743 32.5655 102.151 29.4436 102.151C26.3218 102.151 23.6232 104.849 23.6761 107.917C23.6761 110.033 23.3587 113.207 22.2475 115.641C21.1363 118.233 19.3373 120.455 17.5912 122.624C15.7392 124.687 13.9931 126.962 11.665 128.496C9.44263 130.136 6.74409 131.194 4.15136 132.146C4.09845 132.146 3.99262 131.987 3.93971 131.987C3.41058 132.199 3.09311 132.781 2.61689 133.098C1.24116 134.103 0.288736 135.373 0.0770856 136.96C-0.187478 138.494 0.23583 140.134 1.24117 141.456C2.24651 142.832 3.67515 143.572 5.20962 143.837C6.74409 144.101 8.22565 143.678 9.60138 142.673C11.2417 141.456 12.9349 140.345 14.4693 139.023C16.0567 137.7 17.5912 136.325 19.0727 134.95C20.6072 136.113 22.0888 137.489 23.6761 138.6C25.2635 139.711 27.0096 140.504 28.7028 141.562C30.3431 142.567 31.9834 143.625 33.6766 144.578C35.3698 145.53 37.0101 146.482 38.7563 147.381C40.5024 148.228 42.2485 149.074 43.9946 149.868C45.7407 150.661 47.5927 151.296 49.3917 152.036C51.1907 152.777 52.9898 153.465 54.8417 154.1C56.6407 154.734 58.4927 155.369 60.3446 156.004C62.1966 156.586 63.9956 157.432 65.8476 157.961C67.6995 158.49 69.6573 158.808 71.5092 159.231C73.4141 159.707 75.3189 159.919 77.2238 160.342C79.1286 160.765 80.9806 161.506 82.8855 161.876C84.7903 162.193 86.7481 162.299 88.6529 162.564C90.6107 162.828 92.5156 162.987 94.4733 163.146C96.4311 163.357 98.3359 163.516 100.241 163.622C102.199 163.728 104.156 163.622 106.061 163.675C107.966 163.675 109.924 163.675 111.882 163.569C113.786 163.463 115.744 163.463 117.702 163.251C119.607 163.04 121.512 162.775 123.469 162.511C125.374 162.246 127.279 161.823 129.184 161.453C131.089 161.135 132.994 160.712 134.899 160.342C136.803 159.919 138.655 159.443 140.56 158.966C142.465 158.49 144.317 158.014 146.169 157.485C148.021 156.956 149.926 156.48 151.778 155.898C153.63 155.316 155.429 154.576 157.228 153.941C159.08 153.306 160.879 152.618 162.678 151.931C164.477 151.19 166.329 150.608 168.128 149.815C169.927 149.021 171.726 148.281 173.419 147.434C175.165 146.588 176.753 145.371 178.446 144.472C180.139 143.519 181.991 142.779 183.631 141.774C185.271 140.769 187.018 139.816 188.605 138.706C190.192 137.595 191.621 136.008 193.155 134.844C194.637 136.272 196.224 137.648 197.812 138.97C199.346 140.293 200.987 141.509 202.627 142.673C204.003 143.678 205.537 144.366 207.072 144.154C208.606 143.943 209.982 142.832 210.987 141.456C211.992 140.081 212.151 138.547 211.887 136.96C211.622 135.426 211.04 133.944 209.664 132.939L209.453 133.045Z" fill="#2F47BF"/>
</g>
</svg>
